<mxfile host="app.diagrams.net" modified="2022-01-05T01:53:59.109Z" agent="5.0 (Macintosh; Intel Mac OS X 10_15_7) AppleWebKit/537.36 (KHTML, like Gecko) Chrome/96.0.4664.110 Safari/537.36" etag="_NCrvHHmg6nzPR-RYNg4" version="16.1.0" type="github">
  <diagram id="prtHgNgQTEPvFCAcTncT" name="Page-1">
    <mxGraphModel dx="946" dy="589" grid="1" gridSize="10" guides="1" tooltips="1" connect="1" arrows="1" fold="1" page="1" pageScale="1" pageWidth="827" pageHeight="1169" math="0" shadow="0">
      <root>
        <mxCell id="0" />
        <mxCell id="1" parent="0" />
        <mxCell id="NFoc7kbCHey70WZmvjU9-3" value="" style="edgeStyle=orthogonalEdgeStyle;rounded=0;orthogonalLoop=1;jettySize=auto;html=1;" edge="1" parent="1" source="NFoc7kbCHey70WZmvjU9-1" target="NFoc7kbCHey70WZmvjU9-2">
          <mxGeometry relative="1" as="geometry" />
        </mxCell>
        <mxCell id="NFoc7kbCHey70WZmvjU9-1" value="选中文件点分享（控制下多选不要超过10个）" style="rounded=1;whiteSpace=wrap;html=1;" vertex="1" parent="1">
          <mxGeometry x="340" y="80" width="120" height="60" as="geometry" />
        </mxCell>
        <mxCell id="NFoc7kbCHey70WZmvjU9-5" value="" style="edgeStyle=orthogonalEdgeStyle;rounded=0;orthogonalLoop=1;jettySize=auto;html=1;" edge="1" parent="1" source="NFoc7kbCHey70WZmvjU9-2" target="NFoc7kbCHey70WZmvjU9-4">
          <mxGeometry relative="1" as="geometry" />
        </mxCell>
        <mxCell id="NFoc7kbCHey70WZmvjU9-2" value="选择分享用户点击分享" style="rounded=1;whiteSpace=wrap;html=1;" vertex="1" parent="1">
          <mxGeometry x="340" y="170" width="120" height="60" as="geometry" />
        </mxCell>
        <mxCell id="NFoc7kbCHey70WZmvjU9-7" value="" style="edgeStyle=orthogonalEdgeStyle;rounded=0;orthogonalLoop=1;jettySize=auto;html=1;" edge="1" parent="1" source="NFoc7kbCHey70WZmvjU9-4" target="NFoc7kbCHey70WZmvjU9-6">
          <mxGeometry relative="1" as="geometry" />
        </mxCell>
        <mxCell id="NFoc7kbCHey70WZmvjU9-4" value="后台获取user_no，wjbh，userOrAll的参数值" style="rounded=1;whiteSpace=wrap;html=1;" vertex="1" parent="1">
          <mxGeometry x="340" y="260" width="120" height="60" as="geometry" />
        </mxCell>
        <mxCell id="NFoc7kbCHey70WZmvjU9-9" value="" style="edgeStyle=orthogonalEdgeStyle;rounded=0;orthogonalLoop=1;jettySize=auto;html=1;" edge="1" parent="1" source="NFoc7kbCHey70WZmvjU9-6" target="NFoc7kbCHey70WZmvjU9-8">
          <mxGeometry relative="1" as="geometry" />
        </mxCell>
        <mxCell id="NFoc7kbCHey70WZmvjU9-6" value="生成32位uuid用于share_no" style="whiteSpace=wrap;html=1;rounded=1;" vertex="1" parent="1">
          <mxGeometry x="340" y="350" width="120" height="60" as="geometry" />
        </mxCell>
        <mxCell id="NFoc7kbCHey70WZmvjU9-11" value="" style="edgeStyle=orthogonalEdgeStyle;rounded=0;orthogonalLoop=1;jettySize=auto;html=1;" edge="1" parent="1" source="NFoc7kbCHey70WZmvjU9-8" target="NFoc7kbCHey70WZmvjU9-10">
          <mxGeometry relative="1" as="geometry" />
        </mxCell>
        <mxCell id="NFoc7kbCHey70WZmvjU9-8" value="判断拆解wjbh，多文件用，隔开" style="whiteSpace=wrap;html=1;rounded=1;" vertex="1" parent="1">
          <mxGeometry x="340" y="440" width="120" height="60" as="geometry" />
        </mxCell>
        <mxCell id="NFoc7kbCHey70WZmvjU9-13" value="" style="edgeStyle=orthogonalEdgeStyle;rounded=0;orthogonalLoop=1;jettySize=auto;html=1;" edge="1" parent="1" source="NFoc7kbCHey70WZmvjU9-10" target="NFoc7kbCHey70WZmvjU9-12">
          <mxGeometry relative="1" as="geometry" />
        </mxCell>
        <mxCell id="NFoc7kbCHey70WZmvjU9-10" value="数据插入分享链接表数据库" style="whiteSpace=wrap;html=1;rounded=1;" vertex="1" parent="1">
          <mxGeometry x="340" y="530" width="120" height="60" as="geometry" />
        </mxCell>
        <mxCell id="NFoc7kbCHey70WZmvjU9-12" value="判断拆解user_no,多用户的情况下循环并用上面得到的share_no插入到&lt;span style=&quot;color: rgb(0 , 128 , 0) ; font-weight: bold ; background-color: rgb(255 , 255 , 255) ; font-family: &amp;#34;jetbrains mono&amp;#34; , monospace ; font-size: 9.8pt&quot;&gt;被分享用户表&lt;/span&gt;" style="whiteSpace=wrap;html=1;rounded=1;" vertex="1" parent="1">
          <mxGeometry x="330" y="620" width="140" height="70" as="geometry" />
        </mxCell>
      </root>
    </mxGraphModel>
  </diagram>
</mxfile>
